<svg width="26" height="34" viewBox="0 0 26 34" fill="none" xmlns="http://www.w3.org/2000/svg">
<path fill-rule="evenodd" clip-rule="evenodd" d="M2.44824 13.0891C2.44824 7.42035 7.15166 2.78772 13 2.78772C18.8484 2.78772 23.5518 7.42035 23.5518 13.0891C23.5518 14.2511 23.0579 15.8218 22.1791 17.6462C21.3134 19.4434 20.1289 21.3776 18.8679 23.233C16.6315 26.5235 14.1995 29.5011 13 30.925C11.8005 29.5011 9.36855 26.5235 7.13215 23.233C5.87112 21.3776 4.68658 19.4434 3.8209 17.6462C2.94213 15.8218 2.44824 14.2511 2.44824 13.0891ZM13 0.78772C6.08863 0.78772 0.448242 6.27469 0.448242 13.0891C0.448242 14.7155 1.10719 16.621 2.01904 18.5141C2.944 20.4344 4.18787 22.4589 5.47802 24.3572C8.05958 28.1556 10.8836 31.5314 11.8751 32.6904C12.4702 33.3861 13.5298 33.3861 14.1249 32.6904C15.1164 31.5314 17.9404 28.1556 20.522 24.3572C21.8121 22.4589 23.056 20.4344 23.981 18.5141C24.8928 16.621 25.5518 14.7155 25.5518 13.0891C25.5518 6.27469 19.9114 0.78772 13 0.78772ZM14.093 6.6899C13.9268 6.34261 13.576 6.12158 13.1909 6.12158C12.8059 6.12158 12.4551 6.34261 12.2889 6.6899L10.5375 10.3495L6.63377 10.9345C6.26087 10.9904 5.9511 11.2513 5.83262 11.6093C5.71414 11.9672 5.80709 12.3614 6.07302 12.6287L8.91588 15.4864L8.24353 19.529C8.18085 19.9059 8.33837 20.2855 8.64943 20.5073C8.9605 20.7291 9.37075 20.7543 9.7066 20.5722L13.1909 18.6831L16.6753 20.5722C17.0111 20.7543 17.4214 20.7291 17.7325 20.5073C18.0435 20.2855 18.201 19.9059 18.1384 19.529L17.466 15.4864L20.3089 12.6287C20.5748 12.3614 20.6678 11.9672 20.5493 11.6093C20.4308 11.2513 20.121 10.9904 19.7481 10.9345L15.8444 10.3495L14.093 6.6899ZM12.1125 11.6916L13.1909 9.43808L14.2694 11.6916C14.4127 11.9909 14.6951 12.1996 15.0232 12.2488L17.497 12.6195L15.6865 14.4394C15.4595 14.6676 15.3562 14.9912 15.409 15.3087L15.8298 17.8388L13.6676 16.6665C13.3703 16.5053 13.0116 16.5053 12.7143 16.6665L10.5521 17.8388L10.9729 15.3087C11.0257 14.9912 10.9224 14.6676 10.6954 14.4394L8.88494 12.6195L11.3587 12.2488C11.6868 12.1996 11.9692 11.9909 12.1125 11.6916Z" fill="#F09700"/>
</svg>
