<svg width="34" height="34" viewBox="0 0 34 34" fill="none" xmlns="http://www.w3.org/2000/svg">
<path fill-rule="evenodd" clip-rule="evenodd" d="M0.888916 2.94446C0.888916 1.83989 1.78435 0.944458 2.88892 0.944458H31.1111C32.2157 0.944458 33.1111 1.83989 33.1111 2.94446V15.2778C33.1111 15.8301 32.6634 16.2778 32.1111 16.2778C31.5589 16.2778 31.1111 15.8301 31.1111 15.2778V2.94446L2.88892 2.94446V23.1667H11.6667C12.219 23.1667 12.6667 23.6144 12.6667 24.1667C12.6667 24.719 12.219 25.1667 11.6667 25.1667H2.88892C1.78435 25.1667 0.888916 24.2712 0.888916 23.1667V2.94446ZM24.1111 31.0556C27.9158 31.0556 31 27.9713 31 24.1667C31 20.3621 27.9158 17.2778 24.1111 17.2778C20.3065 17.2778 17.2222 20.3621 17.2222 24.1667C17.2222 27.9713 20.3065 31.0556 24.1111 31.0556ZM24.1111 33.0556C29.0203 33.0556 33 29.0759 33 24.1667C33 19.2575 29.0203 15.2778 24.1111 15.2778C19.2019 15.2778 15.2222 19.2575 15.2222 24.1667C15.2222 29.0759 19.2019 33.0556 24.1111 33.0556ZM13.2222 9.05557C13.2222 10.4056 12.1278 11.5 10.7778 11.5C9.42778 11.5 8.33336 10.4056 8.33336 9.05557C8.33336 7.70554 9.42778 6.61112 10.7778 6.61112C12.1278 6.61112 13.2222 7.70554 13.2222 9.05557ZM15.2222 9.05557C15.2222 10.3137 14.6995 11.4498 13.8593 12.2583C15.419 12.9455 16.4787 14.0264 16.9432 14.7231C17.2495 15.1826 17.1254 15.8035 16.6658 16.1098C16.2063 16.4162 15.5854 16.292 15.2791 15.8325C14.819 15.1424 13.2026 13.6111 10.7778 13.6111C9.66574 13.6111 8.73881 14.1896 7.99323 15.0929C7.30333 15.9287 6.83453 16.9718 6.60437 17.8333H6.61565H6.63129H6.64694H6.6626H6.67826H6.69393H6.70961H6.72529H6.74098H6.75668H6.77239H6.7881H6.80382H6.81954H6.83527H6.85101H6.86676H6.88251H6.89826H6.91403H6.9298H6.94557H6.96135H6.97714H6.99293H7.00872H7.02453H7.04033H7.05614H7.07196H7.08778H7.10361H7.11944H7.13528H7.15112H7.16697H7.18282H7.19867H7.21453H7.23039H7.24626H7.26213H7.27801H7.29388H7.30977H7.32565H7.34154H7.35743H7.37333H7.38923H7.40513H7.42103H7.43694H7.45285H7.46877H7.48468H7.5006H7.51652H7.53244H7.54837H7.5643H7.58023H7.59616H7.61209H7.62803H7.64396H7.6599H7.67584H7.69178H7.70773H7.72367H7.73962H7.75556H7.77151H7.78746H7.8034H7.81935H7.8353H7.85125H7.8672H7.88315H7.89911H7.91506H7.93101H7.94696H7.96291H7.97886H7.99481H8.01076H8.02671H8.04266H8.0586H8.07455H8.09049H8.10644H8.12238H8.13833H8.15427H8.17021H8.18614H8.20208H8.21801H8.23395H8.24988H8.26581H8.28173H8.29766H8.31358H8.3295H8.34542H8.36133H8.37724H8.39315H8.40906H8.42496H8.44087H8.45676H8.47266H8.48855H8.50444H8.52032H8.5362H8.55208H8.56795H8.58382H8.59969H8.61555H8.6314H8.64726H8.66311H8.67895H8.69479H8.71062H8.72645H8.74228H8.7581H8.77391H8.78973H8.80553H8.82133H8.83713H8.85291H8.8687H8.88448H8.90025H8.91601H8.93177H8.94753H8.96328H8.97902H8.99475H9.01048H9.02621H9.04192H9.05763H9.07333H9.08903H9.10472H9.1204H9.13607H9.15174H9.1674H9.18305H9.1987H9.21434H9.22997H9.24559H9.2612H9.27681H9.29241H9.30799H9.32358H9.33915H9.35471H9.37027H9.38582H9.40135H9.41688H9.4324H9.44792H9.46342H9.47891H9.4944H9.50987H9.52534H9.54079H9.55624H9.57167H9.5871H9.60251H9.61792H9.63332H9.6487H9.66408H9.67944H9.69479H9.71014H9.72547H9.74079H9.7561H9.7714H9.78669H9.80197H9.81724H9.83249H9.84773H9.86297H9.87819H9.89339H9.90859H9.92378H9.93895H9.95411H9.96926H9.98439H9.99952H10.0146H10.0297H10.0448H10.0599H10.0749H10.09H10.105H10.12H10.1351H10.15H10.165H10.18H10.1949H10.2099H10.2248H10.2397H10.2546H10.2695H10.2844H10.2992H10.3141H10.3289H10.3437H10.3585H10.3733H10.3881H10.4028H10.4175H10.4323H10.447H10.4617H10.4763H10.491H10.5056H10.5203H10.5349H10.5495H10.5641H10.5786H10.5932H10.6077H10.6222H10.6367H10.6512H10.6657H10.6801H10.6946H10.709H10.7234H10.7378H10.7521H10.7665H10.7808H10.7951H10.8094H10.8237H10.838H10.8522H10.8664H10.8806H10.8948H10.909H10.9231H10.9373H10.9514H10.9655H10.9796H10.9936H11.0077H11.0217H11.0357H11.0497H11.0636H11.0776H11.0915H11.1054H11.1193H11.1331H11.147H11.1608H11.1746H11.1884H11.2022H11.2159H11.2296H11.2433H11.257H11.2707H11.2843H11.2979H11.3115H11.3251H11.3387H11.3522H11.3657H11.3792H11.3927H11.4061H11.4196H11.433H11.4464H11.4597H11.4731H11.4864H11.4997H11.5129H11.5262H11.5394H11.5526H11.5658H11.579H11.5921H11.6052H11.6183H11.6314H11.6444H11.6574H11.6704H11.6834H11.6964H11.7093H11.7222H11.7351H11.7479H11.7607H11.7736H11.7863H11.7991H11.8118H11.8245H11.8372H11.8499H11.8625H11.8751H11.8877H11.9003H11.9128H11.9253H11.9378H11.9502H11.9627H11.9751H11.9874H11.9998H12.0121H12.0244H12.0367H12.0489H12.0612H12.0734H12.0855H12.0977H12.1098H12.1219H12.1339H12.146H12.158H12.17H12.1819H12.1938H12.2057H12.2176H12.2294H12.2413H12.253H12.2648H12.2765H12.2882H12.2999H12.3115H12.3232H12.3348H12.3463H12.3578H12.3693H12.3808H12.3923H12.4037H12.4151H12.4264H12.4377H12.449H12.4603H12.4715H12.4827H12.4939H12.5051H12.5162H12.5273H12.5383H12.5494H12.5604H12.5713H12.5823H12.5932H12.604H12.6149H12.6257H12.6365H12.6472H12.6579H12.6686H12.6793H12.6899H12.7005H12.711H12.7216H12.7321H12.7425H12.753H12.7634H12.7737H12.7841H12.7944H12.8046H12.8149H12.8251H12.8352H12.8454H12.8555H12.8656H12.8756H12.8856H12.8956H12.9055H12.9154H12.9253H12.9351H12.9449H12.9547H12.9644H12.9741H12.9838H12.9934H13.003H13.0126H13.0221H13.0316H13.0411H13.0505H13.0599H13.0692H13.0785H13.0878H13.0971H13.1063H13.1154H13.1246H13.1337H13.1428H13.1518H13.1608H13.1697H13.1787H13.1876H13.1964H13.2052H13.214H13.2227H13.2314H13.2401H13.2487H13.2573H13.2659H13.2744H13.2829H13.2913H13.2997H13.3081H13.3164H13.3247H13.333H13.3412H13.3494H13.3575H13.3656H13.3737H13.3817H13.3897H13.3976H13.4055H13.4134H13.4212H13.429H13.4368H13.4445C13.9968 17.8333 14.4445 18.2811 14.4445 18.8333C14.4445 19.3856 13.9968 19.8333 13.4445 19.8333H13.4368H13.429H13.4212H13.4134H13.4055H13.3976H13.3897H13.3817H13.3737H13.3656H13.3575H13.3494H13.3412H13.333H13.3247H13.3164H13.3081H13.2997H13.2913H13.2829H13.2744H13.2659H13.2573H13.2487H13.2401H13.2314H13.2227H13.214H13.2052H13.1964H13.1876H13.1787H13.1697H13.1608H13.1518H13.1428H13.1337H13.1246H13.1154H13.1063H13.0971H13.0878H13.0785H13.0692H13.0599H13.0505H13.0411H13.0316H13.0221H13.0126H13.003H12.9934H12.9838H12.9741H12.9644H12.9547H12.9449H12.9351H12.9253H12.9154H12.9055H12.8956H12.8856H12.8756H12.8656H12.8555H12.8454H12.8352H12.8251H12.8149H12.8046H12.7944H12.7841H12.7737H12.7634H12.753H12.7425H12.7321H12.7216H12.711H12.7005H12.6899H12.6793H12.6686H12.6579H12.6472H12.6365H12.6257H12.6149H12.604H12.5932H12.5823H12.5713H12.5604H12.5494H12.5383H12.5273H12.5162H12.5051H12.4939H12.4827H12.4715H12.4603H12.449H12.4377H12.4264H12.4151H12.4037H12.3923H12.3808H12.3693H12.3578H12.3463H12.3348H12.3232H12.3115H12.2999H12.2882H12.2765H12.2648H12.253H12.2413H12.2294H12.2176H12.2057H12.1938H12.1819H12.17H12.158H12.146H12.1339H12.1219H12.1098H12.0977H12.0855H12.0734H12.0612H12.0489H12.0367H12.0244H12.0121H11.9998H11.9874H11.9751H11.9627H11.9502H11.9378H11.9253H11.9128H11.9003H11.8877H11.8751H11.8625H11.8499H11.8372H11.8245H11.8118H11.7991H11.7863H11.7736H11.7607H11.7479H11.7351H11.7222H11.7093H11.6964H11.6834H11.6704H11.6574H11.6444H11.6314H11.6183H11.6052H11.5921H11.579H11.5658H11.5526H11.5394H11.5262H11.5129H11.4997H11.4864H11.4731H11.4597H11.4464H11.433H11.4196H11.4061H11.3927H11.3792H11.3657H11.3522H11.3387H11.3251H11.3115H11.2979H11.2843H11.2707H11.257H11.2433H11.2296H11.2159H11.2022H11.1884H11.1746H11.1608H11.147H11.1331H11.1193H11.1054H11.0915H11.0776H11.0636H11.0497H11.0357H11.0217H11.0077H10.9936H10.9796H10.9655H10.9514H10.9373H10.9231H10.909H10.8948H10.8806H10.8664H10.8522H10.838H10.8237H10.8094H10.7951H10.7808H10.7665H10.7521H10.7378H10.7234H10.709H10.6946H10.6801H10.6657H10.6512H10.6367H10.6222H10.6077H10.5932H10.5786H10.5641H10.5495H10.5349H10.5203H10.5056H10.491H10.4763H10.4617H10.447H10.4323H10.4175H10.4028H10.3881H10.3733H10.3585H10.3437H10.3289H10.3141H10.2992H10.2844H10.2695H10.2546H10.2397H10.2248H10.2099H10.1949H10.18H10.165H10.15H10.1351H10.12H10.105H10.09H10.0749H10.0599H10.0448H10.0297H10.0146H9.99952H9.98439H9.96926H9.95411H9.93895H9.92378H9.90859H9.89339H9.87819H9.86297H9.84773H9.83249H9.81724H9.80197H9.78669H9.7714H9.7561H9.74079H9.72547H9.71014H9.69479H9.67944H9.66408H9.6487H9.63332H9.61792H9.60251H9.5871H9.57167H9.55624H9.54079H9.52534H9.50987H9.4944H9.47891H9.46342H9.44792H9.4324H9.41688H9.40135H9.38582H9.37027H9.35471H9.33915H9.32358H9.30799H9.29241H9.27681H9.2612H9.24559H9.22997H9.21434H9.1987H9.18305H9.1674H9.15174H9.13607H9.1204H9.10472H9.08903H9.07333H9.05763H9.04192H9.02621H9.01048H8.99475H8.97902H8.96328H8.94753H8.93177H8.91601H8.90025H8.88448H8.8687H8.85291H8.83713H8.82133H8.80553H8.78973H8.77391H8.7581H8.74228H8.72645H8.71062H8.69479H8.67895H8.66311H8.64726H8.6314H8.61555H8.59969H8.58382H8.56795H8.55208H8.5362H8.52032H8.50444H8.48855H8.47266H8.45676H8.44087H8.42496H8.40906H8.39315H8.37724H8.36133H8.34542H8.3295H8.31358H8.29766H8.28173H8.26581H8.24988H8.23395H8.21801H8.20208H8.18614H8.17021H8.15427H8.13833H8.12238H8.10644H8.09049H8.07455H8.0586H8.04266H8.02671H8.01076H7.99481H7.97886H7.96291H7.94696H7.93101H7.91506H7.89911H7.88315H7.8672H7.85125H7.8353H7.81935H7.8034H7.78746H7.77151H7.75556H7.73962H7.72367H7.70773H7.69178H7.67584H7.6599H7.64396H7.62803H7.61209H7.59616H7.58023H7.5643H7.54837H7.53244H7.51652H7.5006H7.48468H7.46877H7.45285H7.43694H7.42103H7.40513H7.38923H7.37333H7.35743H7.34154H7.32565H7.30977H7.29388H7.27801H7.26213H7.24626H7.23039H7.21453H7.19867H7.18282H7.16697H7.15112H7.13528H7.11944H7.10361H7.08778H7.07196H7.05614H7.04033H7.02453H7.00872H6.99293H6.97714H6.96135H6.94557H6.9298H6.91403H6.89826H6.88251H6.86676H6.85101H6.83527H6.81954H6.80382H6.7881H6.77239H6.75668H6.74098H6.72529H6.70961H6.69393H6.67826H6.6626H6.64694H6.63129H6.61565H6.60002H6.5844H6.56878H6.55317H6.53757H6.52198H6.50639H6.49082H6.47525H6.45969H6.44414C5.39321 19.8333 4.30363 18.9194 4.59659 17.6232C4.85787 16.4673 5.46835 15.0099 6.45082 13.8197C6.86578 13.317 7.36053 12.8476 7.9348 12.4719C6.9562 11.6567 6.33336 10.4288 6.33336 9.05557C6.33336 6.60097 8.32321 4.61112 10.7778 4.61112C13.2324 4.61112 15.2222 6.60097 15.2222 9.05557ZM19.7778 6.16668C19.2255 6.16668 18.7778 6.6144 18.7778 7.16668C18.7778 7.71897 19.2255 8.16668 19.7778 8.16668H23.1111C23.6634 8.16668 24.1111 7.71897 24.1111 7.16668C24.1111 6.6144 23.6634 6.16668 23.1111 6.16668H19.7778ZM18.7778 10.7222C18.7778 10.17 19.2255 9.72224 19.7778 9.72224H26.6667C27.219 9.72224 27.6667 10.17 27.6667 10.7222C27.6667 11.2745 27.219 11.7222 26.6667 11.7222H19.7778C19.2255 11.7222 18.7778 11.2745 18.7778 10.7222ZM28.3738 22.2071C28.7643 21.8166 28.7643 21.1834 28.3738 20.7929C27.9833 20.4024 27.3501 20.4024 26.9596 20.7929L22.3334 25.4191L21.2627 24.3485C20.8722 23.9579 20.239 23.9579 19.8485 24.3485C19.458 24.739 19.458 25.3722 19.8485 25.7627L21.6263 27.5405C22.0168 27.931 22.6499 27.931 23.0405 27.5405L28.3738 22.2071Z" fill="#F09700"/>
</svg>
