<svg width="32" height="40" viewBox="0 0 32 40" fill="none" xmlns="http://www.w3.org/2000/svg">
<path fill-rule="evenodd" clip-rule="evenodd" d="M2.95215 15.2191C2.95215 8.20164 8.77309 2.47571 16 2.47571C23.2269 2.47571 29.0478 8.20164 29.0478 15.2191C29.0478 16.6989 28.4154 18.6716 27.3225 20.9262C26.2432 23.153 24.7709 25.5431 23.2142 27.8235C20.4091 31.9325 17.3763 35.618 16 37.2438C14.6237 35.618 11.5909 31.9325 8.78576 27.8235C7.22902 25.5431 5.75681 23.153 4.67744 20.9262C3.58455 18.6716 2.95215 16.6989 2.95215 15.2191ZM16 0.475708C7.71006 0.475708 0.952148 7.05598 0.952148 15.2191C0.952148 17.1671 1.75236 19.4769 2.87772 21.7986C4.01658 24.1481 5.54822 26.6282 7.13395 28.9511C10.3067 33.5987 13.7537 37.7001 14.8719 39.0037C15.4673 39.6977 16.5327 39.6977 17.1281 39.0037C18.2463 37.7001 21.6932 33.5987 24.866 28.9511C26.4517 26.6282 27.9834 24.1481 29.1222 21.7986C30.2476 19.4769 31.0478 17.1671 31.0478 15.2191C31.0478 7.05598 24.2899 0.475708 16 0.475708ZM16.5451 18.9866C18.6943 18.9866 20.4365 17.2444 20.4365 15.0952C20.4365 12.946 18.6943 11.2037 16.5451 11.2037C14.3959 11.2037 12.6536 12.946 12.6536 15.0952C12.6536 17.2444 14.3959 18.9866 16.5451 18.9866Z" fill="white"/>
</svg>
