<svg width="34" height="34" viewBox="0 0 34 34" fill="none" xmlns="http://www.w3.org/2000/svg">
<path fill-rule="evenodd" clip-rule="evenodd" d="M2.7793 0.826416C1.67473 0.826416 0.779297 1.72184 0.779297 2.82642V15.5401C0.779297 16.6447 1.67473 17.5401 2.7793 17.5401H5.25595V22.0578C5.25595 22.4647 5.5025 22.831 5.87946 22.9842C6.25641 23.1374 6.68861 23.0469 6.97245 22.7554L10.5538 19.0769C10.939 18.6812 10.9306 18.0481 10.5349 17.6628C10.1391 17.2776 9.50604 17.286 9.12077 17.6818L7.25595 19.5971V16.5401C7.25595 15.9878 6.80824 15.5401 6.25595 15.5401H2.7793V2.82642L20.4487 2.82642V9.18327C20.4487 9.73555 20.8964 10.1833 21.4487 10.1833C22.001 10.1833 22.4487 9.73555 22.4487 9.18327V2.82642C22.4487 1.72185 21.5532 0.826416 20.4487 0.826416H2.7793ZM15.3137 10.9423C14.2091 10.9423 13.3137 11.8377 13.3137 12.9423V24.7364C13.3137 25.841 14.2091 26.7364 15.3137 26.7364H21.9496L27.9225 32.8713C28.2063 33.1628 28.6385 33.2533 29.0154 33.1001C29.3924 32.9469 29.639 32.5806 29.639 32.1737V26.7364H31.2203C32.3248 26.7364 33.2203 25.841 33.2203 24.7364V12.9423C33.2203 11.8377 32.3248 10.9423 31.2203 10.9423H15.3137ZM15.3137 12.9423H31.2203V24.7364H28.639C28.0867 24.7364 27.639 25.1841 27.639 25.7364V29.713L23.3826 25.3412C23.0061 24.9545 22.4893 24.7364 21.9496 24.7364H15.3137V12.9423Z" fill="#F09700"/>
</svg>
