<svg width="40" height="40" viewBox="0 0 40 40" fill="none" xmlns="http://www.w3.org/2000/svg">
<path fill-rule="evenodd" clip-rule="evenodd" d="M20 2.29126C12.8985 2.29126 7.05287 7.3569 6.01021 13.9305H10.3399C10.8921 13.9305 11.3399 14.3783 11.3399 14.9305V29.7827C11.3399 30.335 10.8921 30.7827 10.3399 30.7827H3.51465C1.8578 30.7827 0.514648 29.4396 0.514648 27.7827V16.9305C0.514648 15.2737 1.85779 13.9305 3.51465 13.9305H3.98779C5.04507 6.2115 11.8325 0.29126 20 0.29126C28.1675 0.29126 34.9549 6.21139 36.0122 13.9303H36.4854C38.1422 13.9303 39.4854 15.2735 39.4854 16.9303V27.7825C39.4854 29.4394 38.1422 30.7825 36.4854 30.7825H33.9903C33.9903 32.0152 33.6698 33.0311 33.055 33.8287C32.4473 34.6171 31.6192 35.1052 30.7528 35.4117C29.3956 35.8919 27.7784 35.9773 26.3765 35.9924C25.9288 37.8381 24.2655 39.2087 22.2821 39.2087H19.883C17.5562 39.2087 15.6699 37.3224 15.6699 34.9956C15.6699 32.6688 17.5562 30.7825 19.883 30.7825H22.2821C24.2628 30.7825 25.9242 32.1494 26.3747 33.9913C27.7235 33.9748 29.0394 33.8964 30.0857 33.5262C30.7079 33.3061 31.1653 33.0043 31.4709 32.6077C31.7694 32.2205 31.9903 31.6564 31.9903 30.7825H29.6602C29.1079 30.7825 28.6602 30.3348 28.6602 29.7825V14.9303C28.6602 14.378 29.1079 13.9303 29.6602 13.9303L33.9898 13.9303C32.947 7.3568 27.1015 2.29126 20 2.29126ZM24.47 34.6609C24.3087 33.5975 23.3906 32.7825 22.2821 32.7825H19.883C18.6608 32.7825 17.6699 33.7734 17.6699 34.9956C17.6699 36.2178 18.6608 37.2087 19.883 37.2087H22.2821C23.3906 37.2087 24.3087 36.3937 24.47 35.3303C24.4328 35.2256 24.4126 35.113 24.4126 34.9956C24.4126 34.8782 24.4328 34.7656 24.47 34.6609ZM34.1549 15.9303L30.6602 15.9303V28.7825H36.4854C37.0377 28.7825 37.4854 28.3348 37.4854 27.7825V16.9303C37.4854 16.378 37.0377 15.9303 36.4854 15.9303H36.1549C36.1552 15.9658 36.1553 16.0014 36.1553 16.0369H34.1553C34.1553 16.0014 34.1552 15.9658 34.1549 15.9303ZM3.84473 16.0369C3.84473 16.0014 3.84485 15.966 3.84509 15.9305H3.51465C2.96236 15.9305 2.51465 16.3783 2.51465 16.9305V27.7827C2.51465 28.335 2.96236 28.7827 3.51465 28.7827H9.33985V15.9305H5.84515C5.84487 15.966 5.84473 16.0014 5.84473 16.0369H3.84473Z" fill="white"/>
</svg>
