<svg width="36" height="34" viewBox="0 0 36 34" fill="none" xmlns="http://www.w3.org/2000/svg">
<path d="M17.1972 2.43345C17.5256 1.7769 18.4744 1.7769 18.8028 2.43345L23.0535 10.9325C23.1839 11.1932 23.436 11.3739 23.7275 11.4158L33.2326 12.7786C33.9668 12.8839 34.26 13.7743 33.7287 14.2854L26.8508 20.901C26.6398 21.1039 26.5435 21.3963 26.5933 21.6829L28.217 31.0243C28.3424 31.7459 27.5748 32.2962 26.9181 31.9555L18.4166 27.5451C18.1558 27.4098 17.8442 27.4098 17.5834 27.5451L9.08189 31.9555C8.42515 32.2962 7.65759 31.7459 7.78301 31.0243L9.40666 21.6829C9.45647 21.3963 9.36019 21.1039 9.14921 20.901L2.27132 14.2854C1.74 13.7743 2.03319 12.8839 2.76744 12.7786L12.2725 11.4158C12.564 11.3739 12.8161 11.1932 12.9465 10.9325L17.1972 2.43345Z" stroke="#F09700" stroke-width="2"/>
</svg>
