<svg width="30" height="32" viewBox="0 0 30 32" fill="none" xmlns="http://www.w3.org/2000/svg">
<path fill-rule="evenodd" clip-rule="evenodd" d="M27.2223 13.4444V30L2.77783 30L2.77783 2H15.7778V10.4444C15.7778 12.1013 17.121 13.4444 18.7778 13.4444H27.2223ZM17.7778 2.48662L26.3481 11.4444H18.7778C18.2255 11.4444 17.7778 10.9967 17.7778 10.4444V2.48662ZM2.77783 0C1.67326 0 0.777832 0.895431 0.777832 2V30C0.777832 31.1046 1.67326 32 2.77783 32H27.2223C28.3268 32 29.2223 31.1046 29.2223 30V12.3582C29.2223 11.8431 29.0235 11.3478 28.6674 10.9756L18.7574 0.617397C18.3801 0.22304 17.858 0 17.3123 0H2.77783ZM6.11117 9.66667C6.11117 9.11438 6.55888 8.66667 7.11117 8.66667H12.2223C12.7746 8.66667 13.2223 9.11438 13.2223 9.66667C13.2223 10.219 12.7746 10.6667 12.2223 10.6667H7.11117C6.55888 10.6667 6.11117 10.219 6.11117 9.66667ZM7.11117 14C6.55888 14 6.11117 14.4477 6.11117 15C6.11117 15.5523 6.55888 16 7.11117 16H17.5556C18.1079 16 18.5556 15.5523 18.5556 15C18.5556 14.4477 18.1079 14 17.5556 14H7.11117ZM7.11117 19.3333C6.55888 19.3333 6.11117 19.781 6.11117 20.3333C6.11117 20.8856 6.55888 21.3333 7.11117 21.3333H22.8889C23.4412 21.3333 23.8889 20.8856 23.8889 20.3333C23.8889 19.781 23.4412 19.3333 22.8889 19.3333H7.11117ZM7.18148 24.653C6.62919 24.653 6.18148 25.1007 6.18148 25.653C6.18148 26.2053 6.62919 26.653 7.18148 26.653L22.8632 26.653C23.4154 26.653 23.8632 26.2053 23.8632 25.653C23.8632 25.1007 23.4154 24.653 22.8632 24.653L7.18148 24.653Z" fill="#F09700"/>
</svg>
