<svg width="40" height="40" viewBox="0 0 40 40" fill="none" xmlns="http://www.w3.org/2000/svg">
<path fill-rule="evenodd" clip-rule="evenodd" d="M15.7778 9.07773C15.7778 9.64429 15.5488 10.4883 14.9962 11.5934C14.4601 12.6655 13.7021 13.822 12.8446 14.9673C11.4879 16.7795 9.96475 18.4554 8.88889 19.5769C7.81303 18.4554 6.28984 16.7795 4.93314 14.9673C4.07571 13.822 3.31765 12.6655 2.78159 11.5934C2.22897 10.4883 2 9.64429 2 9.07773C2 5.2731 5.08426 2.18884 8.88889 2.18884C12.6935 2.18884 15.7778 5.2731 15.7778 9.07773ZM17.7778 9.07773C17.7778 13.16 11.6312 19.6728 9.56054 21.7511C9.18545 22.1275 8.59233 22.1275 8.21723 21.7511C6.14654 19.6728 0 13.16 0 9.07773C0 4.16853 3.97969 0.188843 8.88889 0.188843C13.7981 0.188843 17.7778 4.16853 17.7778 9.07773ZM8.88889 11.3C10.1162 11.3 11.1111 10.305 11.1111 9.07773C11.1111 7.85043 10.1162 6.85551 8.88889 6.85551C7.66159 6.85551 6.66667 7.85043 6.66667 9.07773C6.66667 10.305 7.66159 11.3 8.88889 11.3ZM38 26.8555C38 27.4221 37.771 28.266 37.2184 29.3712C36.6823 30.4433 35.9243 31.5998 35.0669 32.7451C33.7102 34.5572 32.187 36.2331 31.1111 37.3547C30.0353 36.2331 28.5121 34.5572 27.1554 32.7451C26.2979 31.5998 25.5399 30.4433 25.0038 29.3712C24.4512 28.266 24.2222 27.4221 24.2222 26.8555C24.2222 23.0509 27.3065 19.9666 31.1111 19.9666C34.9157 19.9666 38 23.0509 38 26.8555ZM40 26.8555C40 30.9378 33.8535 37.4506 31.7828 39.5288C31.4077 39.9053 30.8146 39.9053 30.4395 39.5288C28.3688 37.4506 22.2222 30.9378 22.2222 26.8555C22.2222 21.9463 26.2019 17.9666 31.1111 17.9666C36.0203 17.9666 40 21.9463 40 26.8555ZM31.1111 29.0777C32.3384 29.0777 33.3333 28.0828 33.3333 26.8555C33.3333 25.6282 32.3384 24.6332 31.1111 24.6332C29.8838 24.6332 28.8889 25.6282 28.8889 26.8555C28.8889 28.0828 29.8838 29.0777 31.1111 29.0777ZM9.38889 26.8555C9.38889 26.5794 9.16503 26.3555 8.88889 26.3555C8.61275 26.3555 8.38889 26.5794 8.38889 26.8555V27.4234C8.38889 27.6996 8.61275 27.9234 8.88889 27.9234C9.16503 27.9234 9.38889 27.6996 9.38889 27.4234V26.8555ZM9.38889 29.695C9.38889 29.4189 9.16503 29.195 8.88889 29.195C8.61275 29.195 8.38889 29.4189 8.38889 29.695V30.8308C8.38889 31.107 8.61275 31.3308 8.88889 31.3308C9.16503 31.3308 9.38889 31.107 9.38889 30.8308V29.695ZM9.38889 33.1024C9.38889 32.8263 9.16503 32.6024 8.88889 32.6024C8.61275 32.6024 8.38889 32.8263 8.38889 33.1024V34.2382C8.38889 34.5144 8.61275 34.7382 8.88889 34.7382C9.16503 34.7382 9.38889 34.5144 9.38889 34.2382V33.1024ZM9.38889 36.5098C9.38889 36.2337 9.16503 36.0098 8.88889 36.0098C8.61275 36.0098 8.38889 36.2337 8.38889 36.5098V37.0777C8.38889 37.3008 8.41823 37.5178 8.47353 37.7247C8.54484 37.9915 8.81892 38.1499 9.08569 38.0786C9.35247 38.0073 9.51093 37.7332 9.43962 37.4664C9.40662 37.343 9.38889 37.2128 9.38889 37.0777V36.5098ZM10.5002 38.527C10.2334 38.4557 9.95933 38.6142 9.88802 38.8809C9.81671 39.1477 9.97517 39.4218 10.2419 39.4931C10.4488 39.5484 10.6658 39.5777 10.8889 39.5777H11.3611C11.6373 39.5777 11.8611 39.3539 11.8611 39.0777C11.8611 38.8016 11.6373 38.5777 11.3611 38.5777H10.8889C10.7538 38.5777 10.6236 38.56 10.5002 38.527ZM13.25 38.5777C12.9739 38.5777 12.75 38.8016 12.75 39.0777C12.75 39.3539 12.9739 39.5777 13.25 39.5777H14.1944C14.4706 39.5777 14.6944 39.3539 14.6944 39.0777C14.6944 38.8016 14.4706 38.5777 14.1944 38.5777H13.25ZM16.0833 38.5777C15.8072 38.5777 15.5833 38.8016 15.5833 39.0777C15.5833 39.3539 15.8072 39.5777 16.0833 39.5777H17.0278C17.3039 39.5777 17.5278 39.3539 17.5278 39.0777C17.5278 38.8016 17.3039 38.5777 17.0278 38.5777H16.0833ZM18.9167 38.5777C18.6405 38.5777 18.4167 38.8016 18.4167 39.0777C18.4167 39.3539 18.6405 39.5777 18.9167 39.5777H19.8611C20.1373 39.5777 20.3611 39.3539 20.3611 39.0777C20.3611 38.8016 20.1373 38.5777 19.8611 38.5777H18.9167ZM21.75 38.5777C21.4739 38.5777 21.25 38.8016 21.25 39.0777C21.25 39.3539 21.4739 39.5777 21.75 39.5777H22.2222C22.4984 39.5777 22.7222 39.3539 22.7222 39.0777C22.7222 38.8016 22.4984 38.5777 22.2222 38.5777H21.75Z" fill="white"/>
</svg>
