<svg width="34" height="26" viewBox="0 0 34 26" fill="none" xmlns="http://www.w3.org/2000/svg">
<path fill-rule="evenodd" clip-rule="evenodd" d="M9.41175 1.70593C9.41175 1.15365 9.85947 0.705933 10.4118 0.705933H27.2941C28.3987 0.705933 29.2941 1.60136 29.2941 2.70593V12.4682L31.3517 10.4106C31.7422 10.0201 32.3754 10.0201 32.7659 10.4106C33.1564 10.8011 33.1564 11.4343 32.7659 11.8248L29.0012 15.5895C28.6107 15.98 27.9775 15.98 27.587 15.5895L23.8223 11.8248C23.4318 11.4343 23.4318 10.8011 23.8223 10.4106C24.2128 10.0201 24.846 10.0201 25.2365 10.4106L27.2941 12.4682L27.2941 2.70593H10.4118C9.85947 2.70593 9.41175 2.25822 9.41175 1.70593ZM6.70587 13.5319L8.76347 15.5895C9.15399 15.98 9.78716 15.98 10.1777 15.5895C10.5682 15.199 10.5682 14.5658 10.1777 14.1753L6.41297 10.4106C6.22544 10.2231 5.97108 10.1177 5.70587 10.1177C5.44065 10.1177 5.1863 10.2231 4.99876 10.4106L1.23406 14.1753C0.843531 14.5658 0.843531 15.199 1.23406 15.5895C1.62458 15.98 2.25774 15.98 2.64827 15.5895L4.70587 13.5319V23.2942C4.70587 24.3987 5.6013 25.2942 6.70587 25.2942H23.5882C24.1405 25.2942 24.5882 24.8465 24.5882 24.2942C24.5882 23.7419 24.1405 23.2942 23.5882 23.2942H6.70587V13.5319Z" fill="#F09700"/>
</svg>
