<svg width="28" height="34" viewBox="0 0 28 34" fill="none" xmlns="http://www.w3.org/2000/svg">
<path fill-rule="evenodd" clip-rule="evenodd" d="M11.0336 0.909912C8.27218 0.909912 6.03361 3.14849 6.03361 5.90991V12.1914H2.06787C0.963302 12.1914 0.0678711 13.0868 0.0678711 14.1914V31.0899C0.0678711 32.1945 0.963299 33.0899 2.06787 33.0899H25.9326C27.0372 33.0899 27.9326 32.1945 27.9326 31.0899V14.1914C27.9326 13.0868 27.0372 12.1914 25.9326 12.1914H21.966V5.90991C21.966 3.14849 19.7274 0.909912 16.966 0.909912H11.0336ZM19.966 12.1914V5.90991C19.966 4.25306 18.6228 2.90991 16.966 2.90991H11.0336C9.37675 2.90991 8.03361 4.25306 8.03361 5.90991V12.1914H19.966ZM25.9326 14.1914L2.06787 14.1914L2.06787 31.0899L25.9326 31.0899L25.9326 14.1914ZM14.0005 19.8991C14.5528 19.8991 15.0005 20.3469 15.0005 20.8991V26.1238C15.0005 26.6761 14.5528 27.1238 14.0005 27.1238C13.4483 27.1238 13.0005 26.6761 13.0005 26.1238V20.8991C13.0005 20.3469 13.4483 19.8991 14.0005 19.8991Z" fill="#F09700"/>
</svg>
