<svg width="34" height="24" viewBox="0 0 34 24" fill="none" xmlns="http://www.w3.org/2000/svg">
<path fill-rule="evenodd" clip-rule="evenodd" d="M20.3334 5.72225C20.3334 7.5632 18.841 9.05558 17 9.05558C15.1591 9.05558 13.6667 7.5632 13.6667 5.72225C13.6667 3.8813 15.1591 2.38892 17 2.38892C18.841 2.38892 20.3334 3.8813 20.3334 5.72225ZM22.3334 5.72225C22.3334 8.66777 19.9455 11.0556 17 11.0556C14.0545 11.0556 11.6667 8.66777 11.6667 5.72225C11.6667 2.77673 14.0545 0.388916 17 0.388916C19.9455 0.388916 22.3334 2.77673 22.3334 5.72225ZM9.11114 22.6111C9.11114 18.2542 12.6431 14.7222 17 14.7222C21.3569 14.7222 24.8889 18.2542 24.8889 22.6111C24.8889 23.1634 25.3366 23.6111 25.8889 23.6111C26.4412 23.6111 26.8889 23.1634 26.8889 22.6111C26.8889 17.1497 22.4615 12.7222 17 12.7222C11.5385 12.7222 7.11114 17.1497 7.11114 22.6111C7.11114 23.1634 7.55885 23.6111 8.11114 23.6111C8.66342 23.6111 9.11114 23.1634 9.11114 22.6111ZM4.43697 17.3058C3.45418 18.3421 2.88892 19.6608 2.88892 20.8334C2.88892 21.3856 2.4412 21.8334 1.88892 21.8334C1.33663 21.8334 0.888916 21.3856 0.888916 20.8334C0.888916 19.0604 1.71654 17.268 2.98575 15.9296C4.26198 14.5838 6.06703 13.6111 8.11114 13.6111C8.66342 13.6111 9.11114 14.0589 9.11114 14.6111C9.11114 15.1634 8.66342 15.6111 8.11114 15.6111C6.7188 15.6111 5.41275 16.2768 4.43697 17.3058ZM31.1111 20.8334C31.1111 19.6608 30.5459 18.3421 29.5631 17.3058C28.5873 16.2768 27.2812 15.6111 25.8889 15.6111C25.3366 15.6111 24.8889 15.1634 24.8889 14.6111C24.8889 14.0589 25.3366 13.6111 25.8889 13.6111C27.933 13.6111 29.7381 14.5838 31.0143 15.9296C32.2835 17.268 33.1111 19.0604 33.1111 20.8334C33.1111 21.3856 32.6634 21.8334 32.1111 21.8334C31.5589 21.8334 31.1111 21.3856 31.1111 20.8334ZM7.22225 10.8334C8.57228 10.8334 9.66669 9.73895 9.66669 8.38892C9.66669 7.03889 8.57228 5.94447 7.22225 5.94447C5.87222 5.94447 4.7778 7.03889 4.7778 8.38892C4.7778 9.73895 5.87222 10.8334 7.22225 10.8334ZM7.22225 12.8334C9.67685 12.8334 11.6667 10.8435 11.6667 8.38892C11.6667 5.93432 9.67685 3.94447 7.22225 3.94447C4.76765 3.94447 2.7778 5.93432 2.7778 8.38892C2.7778 10.8435 4.76765 12.8334 7.22225 12.8334ZM29.2222 8.38892C29.2222 9.73895 28.1278 10.8334 26.7778 10.8334C25.4278 10.8334 24.3334 9.73895 24.3334 8.38892C24.3334 7.03889 25.4278 5.94447 26.7778 5.94447C28.1278 5.94447 29.2222 7.03889 29.2222 8.38892ZM31.2222 8.38892C31.2222 10.8435 29.2324 12.8334 26.7778 12.8334C24.3232 12.8334 22.3334 10.8435 22.3334 8.38892C22.3334 5.93432 24.3232 3.94447 26.7778 3.94447C29.2324 3.94447 31.2222 5.93432 31.2222 8.38892Z" fill="#F09700"/>
</svg>
