<svg width="40" height="28" viewBox="0 0 40 28" fill="none" xmlns="http://www.w3.org/2000/svg">
<path fill-rule="evenodd" clip-rule="evenodd" d="M10.1122 2.72583H11.1122V11.9476H3.23707L7.67721 2.72583L10.1122 2.72583ZM0.767618 12.4663L5.45745 2.72583L3.22254 2.72583C2.67026 2.72583 2.22254 2.27811 2.22254 1.72583C2.22254 1.17354 2.67026 0.72583 3.22254 0.72583H7.67721H10.1122H12.1122H18.2384C18.8806 0.72583 19.4837 1.03422 19.8597 1.55485L27.3656 11.9476H33.8889C37.2026 11.9476 39.8889 14.6339 39.8889 17.9476V23.0636C39.8889 24.1681 38.9935 25.0636 37.8889 25.0636H32.7522C32.0008 26.3867 30.5654 27.2741 28.9328 27.2741C27.3002 27.2741 25.8648 26.3867 25.1134 25.0636H13.1792C13.045 25.0636 12.9169 25.0371 12.8 24.9892C12.0607 26.3533 10.6023 27.2741 8.93927 27.2741C7.30663 27.2741 5.87123 26.3867 5.11984 25.0636H3.11133C1.45447 25.0636 0.111328 23.7204 0.111328 22.0636V13.9476C0.111328 13.3603 0.36448 12.8321 0.767618 12.4663ZM2.11133 14.0603V22.0636C2.11133 22.6159 2.55904 23.0636 3.11133 23.0636H4.5656C4.56468 23.0271 4.56422 22.9905 4.56422 22.9538C4.56422 20.5524 6.53849 18.6336 8.93927 18.6336C11.34 18.6336 13.3143 20.5524 13.3143 22.9538C13.3143 22.9905 13.3139 23.0271 13.3129 23.0636H24.5591C24.5582 23.0271 24.5578 22.9905 24.5578 22.9538C24.5578 20.5524 26.532 18.6336 28.9328 18.6336C31.3336 18.6336 33.3078 20.5524 33.3078 22.9538C33.3078 22.9905 33.3074 23.0271 33.3065 23.0636H37.8889V17.9476C37.8889 15.7385 36.0981 13.9476 33.8889 13.9476H28.8101L28.8914 14.0603H26.4243H12.1141L12.1122 14.0603L12.1102 14.0603H2.11133ZM24.8986 11.9476L18.2384 2.72583L13.1122 2.72583V11.9476H24.8986ZM6.56422 22.9538C6.56422 21.6877 7.61207 20.6336 8.93927 20.6336C10.2665 20.6336 11.3143 21.6877 11.3143 22.9538C11.3143 24.2199 10.2665 25.2741 8.93927 25.2741C7.61207 25.2741 6.56422 24.2199 6.56422 22.9538ZM26.5578 22.9538C26.5578 21.6877 27.6056 20.6336 28.9328 20.6336C30.26 20.6336 31.3078 21.6877 31.3078 22.9538C31.3078 24.2199 30.26 25.2741 28.9328 25.2741C27.6056 25.2741 26.5578 24.2199 26.5578 22.9538Z" fill="white"/>
</svg>
