<svg width="40" height="28" viewBox="0 0 40 28" fill="none" xmlns="http://www.w3.org/2000/svg">
<path fill-rule="evenodd" clip-rule="evenodd" d="M10.112 2.72583H11.112V11.9476H3.23695L7.67708 2.72583L10.112 2.72583ZM0.767496 12.4663L5.45733 2.72583L3.22242 2.72583C2.67014 2.72583 2.22242 2.27811 2.22242 1.72583C2.22242 1.17354 2.67014 0.72583 3.22242 0.72583H7.67708H10.112H12.112H18.2382C18.8804 0.72583 19.4836 1.03422 19.8596 1.55485L27.3655 11.9476H33.8888C37.2025 11.9476 39.8888 14.6339 39.8888 17.9476V23.0636C39.8888 24.1681 38.9934 25.0636 37.8888 25.0636H32.7521C32.0007 26.3867 30.5653 27.2741 28.9327 27.2741C27.3 27.2741 25.8646 26.3867 25.1133 25.0636H13.179C13.0448 25.0636 12.9168 25.0371 12.7999 24.9892C12.0606 26.3533 10.6022 27.2741 8.93915 27.2741C7.30651 27.2741 5.87111 26.3867 5.11972 25.0636H3.11121C1.45435 25.0636 0.111206 23.7204 0.111206 22.0636V13.9476C0.111206 13.3603 0.364358 12.8321 0.767496 12.4663ZM2.11121 14.0603V22.0636C2.11121 22.6159 2.55892 23.0636 3.11121 23.0636H4.56548C4.56456 23.0271 4.5641 22.9905 4.5641 22.9538C4.5641 20.5524 6.53837 18.6336 8.93915 18.6336C11.3399 18.6336 13.3142 20.5524 13.3142 22.9538C13.3142 22.9905 13.3137 23.0271 13.3128 23.0636H24.559C24.5581 23.0271 24.5576 22.9905 24.5576 22.9538C24.5576 20.5524 26.5319 18.6336 28.9327 18.6336C31.3335 18.6336 33.3077 20.5524 33.3077 22.9538C33.3077 22.9905 33.3073 23.0271 33.3063 23.0636H37.8888V17.9476C37.8888 15.7385 36.0979 13.9476 33.8888 13.9476H28.8099L28.8913 14.0603H26.4242H12.114L12.112 14.0603L12.1101 14.0603H2.11121ZM24.8984 11.9476L18.2382 2.72583L13.112 2.72583V11.9476H24.8984ZM6.5641 22.9538C6.5641 21.6877 7.61195 20.6336 8.93915 20.6336C10.2663 20.6336 11.3142 21.6877 11.3142 22.9538C11.3142 24.2199 10.2663 25.2741 8.93915 25.2741C7.61195 25.2741 6.5641 24.2199 6.5641 22.9538ZM26.5576 22.9538C26.5576 21.6877 27.6055 20.6336 28.9327 20.6336C30.2599 20.6336 31.3077 21.6877 31.3077 22.9538C31.3077 24.2199 30.2599 25.2741 28.9327 25.2741C27.6055 25.2741 26.5576 24.2199 26.5576 22.9538Z" fill="#F09700"/>
</svg>
